<svg version="1.1" id="Layer_1" xmlns="http://www.w3.org/2000/svg" xmlns:xlink="http://www.w3.org/1999/xlink" x="0px" y="0px"
	 width="100%" viewBox="0 0 960 960" enable-background="new 0 0 960 960" xml:space="preserve">
<path fill="#FEEB00" opacity="1.000000" stroke="none" 
	d="
M518.000000,961.000000 
	C493.645782,961.000000 469.291534,961.000000 444.807007,960.650940 
	C443.665741,959.869385 442.686340,959.167847 441.639038,959.044861 
	C426.877319,957.311584 411.943787,956.524475 397.373138,953.793823 
	C371.046967,948.860168 345.100952,942.334412 319.812073,933.150696 
	C289.668274,922.203979 260.892120,908.687866 233.365402,892.210266 
	C206.330978,876.027283 181.113632,857.430908 157.960480,836.223755 
	C135.565018,815.710571 114.678337,793.581604 96.676788,769.037842 
	C77.627090,743.065002 60.630322,715.781555 47.026970,686.472046 
	C34.919552,660.385498 24.623913,633.642151 17.415634,605.788757 
	C10.201130,577.911255 4.458010,549.755737 2.920243,520.888611 
	C2.867284,519.894470 1.666026,518.961487 0.999994,518.000000 
	C1.000000,493.312439 1.000000,468.624878 1.351954,443.802429 
	C2.135336,442.487762 2.837464,441.334106 2.954240,440.123962 
	C3.709806,432.293945 3.816737,424.364014 5.117005,416.631744 
	C7.747656,400.988159 10.648149,385.371124 14.072566,369.883606 
	C21.765745,335.089844 34.144112,301.881134 49.703770,269.899994 
	C55.771984,257.427460 63.017609,245.518997 69.907173,233.456558 
	C85.540939,206.084503 104.568886,181.113266 125.783157,157.953232 
	C146.294373,135.560730 168.422348,114.678673 192.961533,96.677673 
	C218.926132,77.631035 246.212189,60.661186 275.503204,47.036278 
	C301.589874,34.901897 328.378967,24.726952 356.203888,17.417410 
	C384.066895,10.097851 412.281891,4.690901 441.111816,2.921233 
	C442.110107,2.859955 443.038849,1.666020 444.000000,1.000004 
	C468.354218,1.000000 492.708466,1.000000 517.192932,1.350636 
	C518.502014,2.133543 519.653564,2.832892 520.863892,2.956230 
	C531.449524,4.034930 542.174500,4.296875 552.609436,6.179567 
	C569.460205,9.219823 586.146179,13.200030 602.858582,16.974529 
	C634.335571,24.083597 664.072571,36.103180 692.984375,50.099342 
	C716.299500,61.386139 738.678040,74.485146 759.412659,90.071556 
	C774.775146,101.619644 790.218750,113.235031 804.320984,126.236282 
	C819.147888,139.905640 832.863464,154.869492 846.232544,170.002716 
	C856.778687,181.940552 866.738037,194.529343 875.755310,207.655289 
	C890.663513,229.356354 903.954956,252.045319 915.134644,276.000031 
	C927.240601,301.939392 937.258789,328.579651 944.561707,356.211029 
	C951.921265,384.056732 957.447876,412.258392 959.079285,441.111511 
	C959.135559,442.107361 960.333923,443.038635 961.000000,444.000000 
	C961.000000,468.354218 961.000000,492.708466 960.649414,517.192871 
	C959.867310,518.335388 959.163696,519.317749 959.048401,520.364868 
	C958.296692,527.194580 958.042969,534.099060 956.933716,540.865479 
	C954.154236,557.821167 951.517151,574.826599 947.899536,591.613037 
	C940.324768,626.761597 927.867249,660.270996 912.062866,692.520447 
	C900.592224,715.926575 887.619629,738.519653 871.950439,759.368774 
	C860.101074,775.135376 848.048645,790.874268 834.720886,805.369812 
	C821.410828,819.846130 806.792053,833.203247 792.015564,846.220825 
	C780.056091,856.756714 767.464050,866.717529 754.344666,875.761353 
	C732.664062,890.706848 709.929382,903.929810 685.988037,915.119568 
	C660.066833,927.234680 633.465332,937.323730 605.812317,944.576965 
	C577.941345,951.887390 549.729675,957.339050 520.889038,959.078796 
	C519.890991,959.138977 518.961426,960.333923 518.000000,961.000000 
M396.253448,911.197998 
	C408.731354,913.215393 421.164001,915.587463 433.695435,917.184937 
	C474.459839,922.381653 515.184082,921.395386 555.673279,914.667358 
	C627.456116,902.739197 692.176575,874.373901 749.916077,830.059143 
	C887.585632,724.398438 949.338989,545.082703 905.715454,377.543671 
	C858.476135,196.118286 701.441223,65.879333 513.944763,52.807365 
	C448.808228,48.266151 385.748779,58.053810 325.133362,82.251953 
	C173.111893,142.940109 68.932709,281.597229 52.820412,444.497406 
	C46.702713,506.349243 53.595612,566.839783 73.805923,625.651978 
	C123.917976,771.478455 244.223358,878.134277 396.253448,911.197998 
z"/>
<path fill="#000000" opacity="1.000000" stroke="none" 
	d="
M518.468628,961.000000 
	C518.961426,960.333923 519.890991,959.138977 520.889038,959.078796 
	C549.729675,957.339050 577.941345,951.887390 605.812317,944.576965 
	C633.465332,937.323730 660.066833,927.234680 685.988037,915.119568 
	C709.929382,903.929810 732.664062,890.706848 754.344666,875.761353 
	C767.464050,866.717529 780.056091,856.756714 792.015564,846.220825 
	C806.792053,833.203247 821.410828,819.846130 834.720886,805.369812 
	C848.048645,790.874268 860.101074,775.135376 871.950439,759.368774 
	C887.619629,738.519653 900.592224,715.926575 912.062866,692.520447 
	C927.867249,660.270996 940.324768,626.761597 947.899536,591.613037 
	C951.517151,574.826599 954.154236,557.821167 956.933716,540.865479 
	C958.042969,534.099060 958.296692,527.194580 959.048401,520.364868 
	C959.163696,519.317749 959.867310,518.335388 960.649414,517.661499 
	C961.000000,665.593750 961.000000,813.187439 961.000000,961.000000 
	C813.645874,961.000000 666.291565,961.000000 518.468628,961.000000 
z"/>
<path fill="#000000" opacity="1.000000" stroke="none" 
	d="
M0.999994,518.468628 
	C1.666026,518.961487 2.867284,519.894470 2.920243,520.888611 
	C4.458010,549.755737 10.201130,577.911255 17.415634,605.788757 
	C24.623913,633.642151 34.919552,660.385498 47.026970,686.472046 
	C60.630322,715.781555 77.627090,743.065002 96.676788,769.037842 
	C114.678337,793.581604 135.565018,815.710571 157.960480,836.223755 
	C181.113632,857.430908 206.330978,876.027283 233.365402,892.210266 
	C260.892120,908.687866 289.668274,922.203979 319.812073,933.150696 
	C345.100952,942.334412 371.046967,948.860168 397.373138,953.793823 
	C411.943787,956.524475 426.877319,957.311584 441.639038,959.044861 
	C442.686340,959.167847 443.665741,959.869385 444.338379,960.650940 
	C296.406250,961.000000 148.812515,961.000000 1.000000,961.000000 
	C1.000000,813.645874 1.000000,666.291565 0.999994,518.468628 
z"/>
<path fill="#000000" opacity="1.000000" stroke="none" 
	d="
M443.531342,1.000004 
	C443.038849,1.666020 442.110107,2.859955 441.111816,2.921233 
	C412.281891,4.690901 384.066895,10.097851 356.203888,17.417410 
	C328.378967,24.726952 301.589874,34.901897 275.503204,47.036278 
	C246.212189,60.661186 218.926132,77.631035 192.961533,96.677673 
	C168.422348,114.678673 146.294373,135.560730 125.783157,157.953232 
	C104.568886,181.113266 85.540939,206.084503 69.907173,233.456558 
	C63.017609,245.518997 55.771984,257.427460 49.703770,269.899994 
	C34.144112,301.881134 21.765745,335.089844 14.072566,369.883606 
	C10.648149,385.371124 7.747656,400.988159 5.117005,416.631744 
	C3.816737,424.364014 3.709806,432.293945 2.954240,440.123962 
	C2.837464,441.334106 2.135336,442.487762 1.351954,443.333771 
	C1.000000,295.739502 1.000000,148.479004 1.000000,1.000000 
	C148.354156,1.000000 295.708405,1.000000 443.531342,1.000004 
z"/>
<path fill="#000000" opacity="1.000000" stroke="none" 
	d="
M961.000000,443.531342 
	C960.333923,443.038635 959.135559,442.107361 959.079285,441.111511 
	C957.447876,412.258392 951.921265,384.056732 944.561707,356.211029 
	C937.258789,328.579651 927.240601,301.939392 915.134644,276.000031 
	C903.954956,252.045319 890.663513,229.356354 875.755310,207.655289 
	C866.738037,194.529343 856.778687,181.940552 846.232544,170.002716 
	C832.863464,154.869492 819.147888,139.905640 804.320984,126.236282 
	C790.218750,113.235031 774.775146,101.619644 759.412659,90.071556 
	C738.678040,74.485146 716.299500,61.386139 692.984375,50.099342 
	C664.072571,36.103180 634.335571,24.083597 602.858582,16.974529 
	C586.146179,13.200030 569.460205,9.219823 552.609436,6.179567 
	C542.174500,4.296875 531.449524,4.034930 520.863892,2.956230 
	C519.653564,2.832892 518.502014,2.133543 517.661621,1.350636 
	C665.593750,1.000000 813.187439,1.000000 961.000000,1.000000 
	C961.000000,148.354156 961.000000,295.708405 961.000000,443.531342 
z"/>
<path fill="#023154" opacity="1.000000" stroke="none" 
	d="
M395.838989,911.124329 
	C244.223358,878.134277 123.917976,771.478455 73.805923,625.651978 
	C53.595612,566.839783 46.702713,506.349243 52.820412,444.497406 
	C68.932709,281.597229 173.111893,142.940109 325.133362,82.251953 
	C385.748779,58.053810 448.808228,48.266151 513.944763,52.807365 
	C701.441223,65.879333 858.476135,196.118286 905.715454,377.543671 
	C949.338989,545.082703 887.585632,724.398438 749.916077,830.059143 
	C692.176575,874.373901 627.456116,902.739197 555.673279,914.667358 
	C515.184082,921.395386 474.459839,922.381653 433.695435,917.184937 
	C421.164001,915.587463 408.731354,913.215393 395.838989,911.124329 
M239.923416,745.424377 
	C229.141815,756.648682 218.360214,767.873047 207.112976,779.582153 
	C301.326599,864.249878 410.383240,901.494446 535.796326,886.655518 
	C621.047119,876.568726 694.998474,840.797363 758.723145,782.994934 
	C730.661316,753.774231 703.153503,725.226746 675.815308,696.517822 
	C673.003052,693.564575 670.650513,693.020020 666.817139,694.211182 
	C630.069153,705.630188 592.707092,714.771057 554.524231,719.382935 
	C540.870239,721.032104 532.211914,725.996216 525.677429,737.871643 
	C519.665588,748.797119 511.263611,758.273804 500.915497,765.643005 
	C498.924347,767.060913 496.580505,768.854858 494.354156,768.919434 
	C485.080200,769.188599 477.500183,773.648315 469.962860,778.128296 
	C465.442230,780.815186 462.278137,784.817444 460.926453,790.200378 
	C460.379578,792.378235 459.166504,794.881165 457.455414,796.183594 
	C451.956604,800.369080 449.243347,805.733521 447.705383,812.407410 
	C446.313385,818.447937 444.116089,824.547058 441.001129,829.876404 
	C438.010468,834.993103 433.400940,834.479004 430.651398,829.219543 
	C428.915649,825.899475 427.303040,822.091003 427.148041,818.437500 
	C426.160828,795.165771 427.744568,772.291382 439.856781,751.461914 
	C440.350159,750.613464 440.706543,749.637024 440.907227,748.674438 
	C442.455780,741.246704 443.950195,733.807739 445.421997,726.565857 
	C434.400574,725.744324 423.258087,725.124207 412.159790,724.048767 
	C371.370148,720.096191 331.670563,711.572144 293.972656,695.039062 
	C290.831390,693.661377 289.066589,694.102661 286.743713,696.556152 
	C271.396362,712.766479 255.871399,728.808594 239.923416,745.424377 
M310.674286,262.175323 
	C312.393707,261.645935 314.113159,261.116577 316.130402,260.495514 
	C313.999054,254.545486 316.011444,250.051926 320.217560,246.035110 
	C322.745331,243.621078 323.004272,241.094467 318.996613,239.612228 
	C317.911041,239.210739 316.882355,238.643478 315.853088,238.103622 
	C310.971802,235.543365 310.702240,232.627167 315.631226,230.080200 
	C322.505371,226.528091 329.708069,223.614563 336.749725,220.383194 
	C342.681702,217.661041 343.467407,213.807053 338.876495,209.331436 
	C335.948761,206.477249 332.772522,203.877991 329.808044,201.253281 
	C332.114197,197.273621 334.734192,196.664093 338.985443,196.716431 
	C350.712799,196.860779 355.730896,195.585754 349.895416,181.913910 
	C349.765381,181.609268 349.524292,181.348526 349.415009,181.039062 
	C347.809387,176.491699 348.535858,169.282364 351.188843,168.126572 
	C361.583405,163.598206 371.230255,156.070114 383.448853,158.071884 
	C387.354034,158.711685 392.328094,160.685043 394.328949,163.697968 
	C402.010437,175.264694 412.393005,183.458405 423.698273,191.031723 
	C431.005951,195.927078 438.234802,195.723679 445.975922,193.241531 
	C447.876007,192.632278 449.743256,191.883987 451.679840,191.431808 
	C458.645966,189.805283 468.393799,191.592285 471.035950,200.803299 
	C471.888794,203.776413 474.382019,206.632263 476.828552,208.715271 
	C480.887543,212.171143 483.214478,216.186310 485.122253,221.210678 
	C487.601135,227.739243 489.229614,231.283844 499.057343,227.413757 
	C506.333618,224.548416 513.326599,223.781296 521.669800,227.079941 
	C529.206299,230.059662 538.571533,228.591232 547.131287,228.609619 
	C548.375366,228.612305 550.690002,225.961349 550.680481,224.550690 
	C550.646545,219.514999 554.140137,218.404678 557.606201,216.807678 
	C560.401672,226.969345 569.180603,237.705597 574.597717,237.611053 
	C575.151306,235.456696 575.716675,233.256622 576.397888,230.605545 
	C581.186401,234.804565 589.835571,232.031982 591.512390,240.460815 
	C591.549805,240.648804 592.067322,240.802795 592.382141,240.864944 
	C598.142944,242.002167 603.906921,243.122910 609.670288,244.247147 
	C609.900513,243.845184 610.130737,243.443222 610.360962,243.041275 
	C605.144287,237.180283 599.823547,231.283325 592.891602,227.383926 
	C589.685547,225.580475 588.085449,223.519424 588.147095,220.162720 
	C588.201172,217.219482 588.099365,214.003006 589.255127,211.444138 
	C590.043640,209.698334 593.051636,207.615875 594.768066,207.852661 
	C603.729431,209.088837 612.187561,211.624420 618.450317,219.052490 
	C622.050720,223.322830 623.590454,227.874283 622.943237,233.297333 
	C622.537170,236.699127 620.267334,240.178452 624.867371,242.939148 
	C628.009644,244.824966 630.048218,248.941528 633.298523,250.188690 
	C647.991821,255.826645 662.941040,260.797943 678.370789,266.210266 
	C703.594177,239.945862 729.377258,213.098633 755.172852,186.238403 
	C594.246887,40.397781 353.857483,53.694733 211.277115,189.843475 
	C211.420609,190.136978 211.501129,190.490860 211.716492,190.715424 
	C236.168961,216.213272 260.605438,241.726761 285.185089,267.101501 
	C286.209686,268.159210 288.741150,268.561401 290.290314,268.167236 
	C296.890137,266.488159 303.384460,264.394226 310.674286,262.175323 
M295.152039,404.164154 
	C287.241119,402.775391 279.330200,401.386627 271.129730,399.947052 
	C264.970398,452.264221 266.928253,502.910126 274.833984,553.627380 
	C301.665283,551.974548 322.263306,540.099976 338.050049,519.191467 
	C353.373566,535.737915 368.165009,551.709900 383.087708,567.823547 
	C357.780548,597.000000 326.089172,613.570374 287.824738,619.002502 
	C291.580109,632.079163 295.564850,644.572388 298.642426,657.285156 
	C300.067902,663.173584 303.144226,666.038696 308.510406,668.214783 
	C358.035522,688.296997 409.889740,695.139465 462.858490,695.667664 
	C464.369049,695.682739 466.759186,693.904480 467.281372,692.441895 
	C470.413208,683.670227 471.924927,674.363220 469.064270,665.482361 
	C465.932190,655.758911 461.222015,646.539429 457.126190,637.132202 
	C454.086029,630.149658 450.163208,623.445984 448.008667,616.208679 
	C445.011475,606.141052 447.108429,603.135925 456.804810,599.765259 
	C461.716919,598.057678 463.158966,594.759644 460.511871,591.286987 
	C456.729065,586.324585 456.551025,583.368408 461.538849,579.600281 
	C466.923370,575.532471 473.180176,572.638367 478.883331,568.963562 
	C481.111725,567.527649 483.706329,565.696777 484.614960,563.435364 
	C485.607544,560.965149 485.229126,557.720886 484.746613,554.935608 
	C484.089661,551.143250 484.300171,548.681030 489.085846,548.972229 
	C490.278107,549.044739 492.100861,548.581360 492.655609,547.728271 
	C496.598694,541.664490 500.288666,535.436096 504.050568,529.254883 
	C504.130402,529.123718 504.102997,528.928894 504.131958,528.764954 
	C505.177155,522.848511 502.021057,519.771790 494.577911,517.983582 
	C484.595062,515.585266 474.556000,513.141785 464.909515,509.688568 
	C450.901031,504.673767 444.665588,493.116486 442.181244,479.257019 
	C440.489716,469.820496 439.474274,460.263855 437.837250,450.816223 
	C435.423248,436.884735 432.807648,422.986176 430.067719,409.115112 
	C429.605164,406.773438 428.621124,403.919983 426.889496,402.630829 
	C425.401306,401.522919 421.830139,401.430511 420.413422,402.509094 
	C418.989105,403.593475 417.868164,407.485779 418.711273,408.758881 
	C425.647980,419.233246 426.134491,430.879211 426.210999,442.810822 
	C426.234070,446.406342 428.023560,449.968475 428.800110,453.589569 
	C429.263062,455.748199 430.127472,459.570923 429.434784,459.920868 
	C426.599518,461.353333 423.258972,462.100677 420.052185,462.313751 
	C418.912964,462.389435 416.877106,460.392426 416.583160,459.049835 
	C416.158813,457.111603 416.350525,454.553772 417.336945,452.885681 
	C419.917419,448.522064 419.238678,444.195007 416.868744,440.585144 
	C413.174225,434.957703 408.701965,429.822205 404.347137,424.657074 
	C402.813538,422.838165 400.656464,421.544983 397.588989,419.033173 
	C401.248352,418.252716 403.530670,417.713806 405.833740,417.286926 
	C409.312866,416.642029 410.804077,415.297455 409.902191,411.197693 
	C407.953094,402.337463 405.120605,393.964600 399.928925,386.449707 
	C399.113647,385.269623 398.459351,383.744781 398.366058,382.337250 
	C397.750854,373.053528 397.027893,363.774231 399.502625,354.576447 
	C400.839874,349.606323 401.984161,344.537109 402.628510,339.438416 
	C403.669495,331.201172 406.613556,322.220367 404.485260,314.773590 
	C400.192444,299.753113 392.298553,286.237885 374.400269,283.422668 
	C369.029114,282.577850 363.243378,280.418884 358.287354,281.583832 
	C339.049042,286.105896 320.063171,291.705292 301.004425,296.979919 
	C299.843079,297.301331 298.266754,298.045380 297.890869,298.992554 
	C292.839294,311.720825 287.966919,324.520233 282.823975,337.889801 
	C324.785675,342.710876 358.569977,360.229279 385.115204,392.067566 
	C369.741547,407.047119 354.561859,421.837708 339.029022,436.972443 
	C327.978546,420.994843 313.804321,410.195648 295.152039,404.164154 
M755.975159,355.524414 
	C788.858826,389.153900 808.212708,430.205841 820.931213,474.770477 
	C834.609070,522.696777 839.260132,571.805847 839.191040,621.472229 
	C839.189697,622.399292 838.952271,623.326050 838.816711,624.313965 
	C816.032898,624.313965 793.596436,624.313965 770.563110,624.313965 
	C770.563110,612.166992 770.563110,600.255066 770.563110,588.267334 
	C754.191589,588.267334 738.418823,588.267334 722.499451,588.267334 
	C722.297974,589.063721 722.107910,589.673706 721.990967,590.297424 
	C716.890259,617.507690 709.740601,644.120911 698.296143,669.410400 
	C696.629517,673.093262 697.169739,675.205566 699.869568,677.994690 
	C725.826172,704.808838 751.637207,731.764038 777.504456,758.664856 
	C778.374878,759.570007 779.398743,760.327698 780.338745,761.143372 
	C931.391785,599.715820 919.726135,353.410309 776.182373,206.914276 
	C775.152893,208.432281 774.319946,210.125610 773.075989,211.425659 
	C750.615112,234.898560 728.465881,258.688629 705.392639,281.545288 
	C698.144897,288.725037 696.013367,294.748932 699.826050,304.284149 
	C703.585388,313.685822 705.525391,323.814972 708.385132,334.060120 
	C709.794739,332.779846 710.967590,332.036682 711.706116,330.987671 
	C714.777771,326.624603 718.176208,327.314911 722.287537,329.585632 
	C734.644592,336.410431 745.502625,345.123932 755.975159,355.524414 
M168.807892,376.312927 
	C191.373108,355.778442 217.828018,343.451477 247.969345,339.099030 
	C250.917633,338.673279 251.660782,337.323608 252.470001,334.883850 
	C256.862183,321.641571 261.294556,308.406555 266.114746,295.316956 
	C267.213867,292.332184 265.926880,291.097504 264.316254,289.423767 
	C248.257339,272.735596 232.209671,256.036621 216.162689,239.336990 
	C207.293991,230.107559 198.432617,220.871078 189.560318,211.629837 
	C48.432777,358.093658 42.896267,603.141541 186.216125,756.946594 
	C186.594498,756.692871 187.049393,756.490906 187.369049,756.158813 
	C214.405380,728.067688 241.459656,699.993591 268.360901,671.773682 
	C269.515350,670.562622 269.980530,667.807373 269.531952,666.094910 
	C265.741608,651.624878 261.599457,637.247375 257.729492,622.797485 
	C257.006378,620.097351 255.741150,619.222412 252.979691,618.952209 
	C234.907654,617.183960 217.803574,611.977112 201.583298,603.849365 
	C113.295250,559.609253 96.203697,443.019562 168.807892,376.312927 
M661.481384,414.027252 
	C627.979797,476.472443 614.445251,543.595337 613.956177,614.199951 
	C631.019531,614.199951 647.388977,614.199951 664.230835,614.199951 
	C664.230835,601.712341 664.230835,589.614014 664.230835,577.281250 
	C703.457886,577.281250 742.210876,577.281250 781.665405,577.281250 
	C781.665405,589.310547 781.665405,601.200439 781.665405,613.292725 
	C797.452759,613.292725 812.538025,613.292725 827.801880,613.292725 
	C827.915955,611.870300 828.101807,610.733582 828.084412,609.599915 
	C827.424744,566.486389 822.897766,523.865662 811.544434,482.146790 
	C801.354187,444.701630 786.331970,409.531799 761.979614,378.894043 
	C749.772888,363.536774 735.864502,350.017395 718.325562,340.042633 
	C695.375305,361.417175 676.882080,386.056549 661.481384,414.027252 
M612.082947,677.661865 
	C629.395691,672.913635 646.743896,668.287170 663.978699,663.271240 
	C666.269592,662.604492 668.992004,660.335632 669.801880,658.168518 
	C674.858276,644.638916 679.760986,631.030762 684.042725,617.239990 
	C686.965393,607.826660 688.795715,598.074158 691.154236,588.308777 
	C685.406555,588.308777 680.473755,588.308777 674.980713,588.308777 
	C674.980713,600.784851 674.980713,613.001221 674.980713,625.262085 
	C650.997314,625.262085 627.583557,625.262085 603.964600,625.262085 
	C603.770813,623.178284 603.526794,621.376648 603.446472,619.567810 
	C602.341919,594.675964 604.278809,569.955994 607.895203,545.354370 
	C617.665039,478.892700 639.639709,417.363525 681.383606,363.819122 
	C682.429565,362.477478 683.018005,360.023010 682.595642,358.407623 
	C677.297852,338.144867 671.742981,317.949493 666.333862,297.715546 
	C665.238037,293.616272 661.975891,292.362946 658.726013,292.964630 
	C652.044922,294.201660 647.230896,291.500061 642.964539,287.042969 
	C638.279236,282.148193 628.012146,280.722107 623.571289,284.943451 
	C621.266357,287.134460 619.845459,290.255463 618.022278,292.954315 
	C611.031189,292.958069 609.710693,291.248993 609.890076,283.866913 
	C609.975159,280.367462 610.367493,275.975555 605.375305,275.126251 
	C588.651855,272.281250 571.907837,269.545959 555.129822,267.050751 
	C553.549561,266.815735 550.932129,268.094513 550.058838,269.471344 
	C545.168579,277.181000 540.666321,285.136810 536.089783,292.909729 
	C538.285828,295.424622 540.552551,297.489349 542.140564,299.985779 
	C543.783325,302.568481 544.767212,305.570221 546.039368,308.388641 
	C550.043823,309.342957 553.477234,311.272217 556.944763,313.138153 
	C558.781433,314.126526 561.499146,316.293152 562.407043,315.714050 
	C566.787048,312.920258 571.984253,310.120422 574.414917,305.897217 
	C577.193848,301.069183 580.701172,298.358948 585.399841,296.577484 
	C595.312683,292.819122 600.201843,296.230896 600.177795,306.721710 
	C602.395203,308.160126 605.075562,309.233337 606.711731,311.182861 
	C607.897522,312.595856 608.725220,316.203796 607.908081,317.014923 
	C606.124023,318.785767 603.192444,320.274292 600.724854,320.281616 
	C596.857666,320.293091 596.227600,322.241455 596.998047,324.903992 
	C597.551819,326.817596 598.987610,328.868622 600.623901,329.997406 
	C604.433533,332.625519 608.659790,334.640900 612.599854,337.093079 
	C614.461914,338.252045 616.054382,339.844116 617.781067,341.249725 
	C616.650208,342.838379 615.911438,343.876282 615.341187,344.677368 
	C617.029114,347.462708 618.534729,349.947205 619.539307,351.604950 
	C614.816101,358.091125 610.639099,363.847717 606.438843,369.587280 
	C604.091248,372.795197 601.886841,376.138214 599.242554,379.083282 
	C598.245911,380.193298 596.090637,381.039429 594.633789,380.828674 
	C587.375793,379.778625 581.274536,380.062531 576.328308,387.135406 
	C573.666016,390.942322 568.321960,392.871796 564.192749,395.655518 
	C561.490295,397.477325 558.381958,399.582825 560.566833,403.212372 
	C563.543640,408.157471 562.179260,411.919464 558.905334,415.876831 
	C557.098816,418.060425 555.757935,420.393921 558.236206,423.424316 
	C560.320923,425.973419 559.078552,428.653900 556.409485,430.123871 
	C550.662292,433.289062 547.911316,438.332336 546.764587,444.569611 
	C541.288513,438.807556 538.620544,438.616852 534.073486,443.643555 
	C533.184021,444.626892 532.615845,445.959137 531.606262,446.761597 
	C530.174622,447.899475 528.471008,448.695068 526.479492,449.876740 
	C525.514648,440.940552 522.995178,438.424927 515.066467,437.601746 
	C507.858307,436.853363 501.500610,438.919098 496.338074,443.990479 
	C492.779266,447.486389 489.064270,450.998810 486.331757,455.110413 
	C483.667053,459.120026 481.082214,463.734772 480.370209,468.376526 
	C478.830658,478.413239 480.786621,488.288544 484.943512,497.595856 
	C489.441437,507.666809 496.094635,509.676971 505.396484,503.764160 
	C507.469177,502.446594 509.382843,500.710785 510.971039,498.830719 
	C515.630493,493.315002 524.476135,494.220398 528.188782,500.468231 
	C523.098206,502.155029 517.739258,503.414337 512.848816,505.683319 
	C506.862427,508.460785 505.389618,512.362366 506.531525,518.796875 
	C508.157013,527.956421 514.367859,533.157837 522.192322,536.895020 
	C529.068115,540.179138 533.440430,545.304321 535.478271,552.753052 
	C536.418152,556.188538 537.939514,559.844849 540.265930,562.444824 
	C545.681030,568.496765 551.743286,573.969727 557.545593,579.675049 
	C560.141235,582.227295 563.043091,584.539673 565.260681,587.385803 
	C567.737183,590.564331 567.068237,593.961975 564.302795,596.869263 
	C558.421387,603.052185 558.737183,604.058167 565.284058,609.035339 
	C575.727295,616.974731 586.156433,624.985168 596.011658,633.626953 
	C602.599243,639.403381 604.826355,647.485291 602.304749,656.002319 
	C599.702454,664.791382 596.247620,673.328064 593.233032,681.786377 
	C598.652771,680.607971 604.961731,679.236145 612.082947,677.661865 
M141.821899,521.668030 
	C144.012238,526.698730 145.904099,531.885376 148.437973,536.736694 
	C183.268005,603.421753 268.146667,628.716736 335.339050,592.499573 
	C347.417236,585.989319 358.343781,577.961121 368.054840,567.807129 
	C358.108490,557.066345 348.398193,546.580383 338.730469,536.140503 
	C338.193634,536.439453 337.869690,536.560547 337.621002,536.770630 
	C337.113342,537.199524 336.645386,537.675537 336.162537,538.133667 
	C312.614594,560.474731 284.764862,568.693604 252.934357,562.947327 
	C199.494171,553.299805 167.220352,497.695129 185.811295,447.641113 
	C207.462326,389.348145 284.012299,370.504761 331.331726,411.841400 
	C334.321320,414.452972 337.122406,417.280334 340.412964,420.386566 
	C349.857147,410.351166 359.176208,400.448730 368.788788,390.234375 
	C369.256622,391.151947 369.161072,390.805542 368.945221,390.568909 
	C368.048950,389.586395 367.160339,388.590027 366.190857,387.682129 
	C328.395813,352.288452 283.908875,340.732178 234.089401,353.217499 
	C158.474854,372.167328 116.649597,448.901794 141.821899,521.668030 
M200.052582,442.634430 
	C175.034088,491.847382 209.339371,539.412781 242.998428,547.839844 
	C236.335922,501.309204 234.766174,454.700745 239.125275,407.109924 
	C221.793640,414.731689 209.168793,426.196045 200.052582,442.634430 
z"/>
<path fill="#FEEB00" opacity="1.000000" stroke="none" 
	d="
M240.163849,745.164978 
	C255.871399,728.808594 271.396362,712.766479 286.743713,696.556152 
	C289.066589,694.102661 290.831390,693.661377 293.972656,695.039062 
	C331.670563,711.572144 371.370148,720.096191 412.159790,724.048767 
	C423.258087,725.124207 434.400574,725.744324 445.421997,726.565857 
	C443.950195,733.807739 442.455780,741.246704 440.907227,748.674438 
	C440.706543,749.637024 440.350159,750.613464 439.856781,751.461914 
	C427.744568,772.291382 426.160828,795.165771 427.148041,818.437500 
	C427.303040,822.091003 428.915649,825.899475 430.651398,829.219543 
	C433.400940,834.479004 438.010468,834.993103 441.001129,829.876404 
	C444.116089,824.547058 446.313385,818.447937 447.705383,812.407410 
	C449.243347,805.733521 451.956604,800.369080 457.455414,796.183594 
	C459.166504,794.881165 460.379578,792.378235 460.926453,790.200378 
	C462.278137,784.817444 465.442230,780.815186 469.962860,778.128296 
	C477.500183,773.648315 485.080200,769.188599 494.354156,768.919434 
	C496.580505,768.854858 498.924347,767.060913 500.915497,765.643005 
	C511.263611,758.273804 519.665588,748.797119 525.677429,737.871643 
	C532.211914,725.996216 540.870239,721.032104 554.524231,719.382935 
	C592.707092,714.771057 630.069153,705.630188 666.817139,694.211182 
	C670.650513,693.020020 673.003052,693.564575 675.815308,696.517822 
	C703.153503,725.226746 730.661316,753.774231 758.723145,782.994934 
	C694.998474,840.797363 621.047119,876.568726 535.796326,886.655518 
	C410.383240,901.494446 301.326599,864.249878 207.112976,779.582153 
	C218.360214,767.873047 229.141815,756.648682 240.163849,745.164978 
z"/>
<path fill="#FEEA00" opacity="1.000000" stroke="none" 
	d="
M310.295776,262.313538 
	C303.384460,264.394226 296.890137,266.488159 290.290314,268.167236 
	C288.741150,268.561401 286.209686,268.159210 285.185089,267.101501 
	C260.605438,241.726761 236.168961,216.213272 211.716492,190.715424 
	C211.501129,190.490860 211.420609,190.136978 211.282120,189.841034 
	C353.857483,53.694733 594.246887,40.397781 755.172852,186.238403 
	C729.377258,213.098633 703.594177,239.945862 678.370789,266.210266 
	C662.941040,260.797943 647.991821,255.826645 633.298523,250.188690 
	C630.048218,248.941528 628.009644,244.824966 624.867371,242.939148 
	C620.267334,240.178452 622.537170,236.699127 622.943237,233.297333 
	C623.590454,227.874283 622.050720,223.322830 618.450317,219.052490 
	C612.187561,211.624420 603.729431,209.088837 594.768066,207.852661 
	C593.051636,207.615875 590.043640,209.698334 589.255127,211.444138 
	C588.099365,214.003006 588.201172,217.219482 588.147095,220.162720 
	C588.085449,223.519424 589.685547,225.580475 592.891602,227.383926 
	C599.823547,231.283325 605.144287,237.180283 610.360962,243.041275 
	C610.130737,243.443222 609.900513,243.845184 609.670288,244.247147 
	C603.906921,243.122910 598.142944,242.002167 592.382141,240.864944 
	C592.067322,240.802795 591.549805,240.648804 591.512390,240.460815 
	C589.835571,232.031982 581.186401,234.804565 576.397888,230.605545 
	C575.716675,233.256622 575.151306,235.456696 574.597717,237.611053 
	C569.180603,237.705597 560.401672,226.969345 557.606201,216.807678 
	C554.140137,218.404678 550.646545,219.514999 550.680481,224.550690 
	C550.690002,225.961349 548.375366,228.612305 547.131287,228.609619 
	C538.571533,228.591232 529.206299,230.059662 521.669800,227.079941 
	C513.326599,223.781296 506.333618,224.548416 499.057343,227.413757 
	C489.229614,231.283844 487.601135,227.739243 485.122253,221.210678 
	C483.214478,216.186310 480.887543,212.171143 476.828552,208.715271 
	C474.382019,206.632263 471.888794,203.776413 471.035950,200.803299 
	C468.393799,191.592285 458.645966,189.805283 451.679840,191.431808 
	C449.743256,191.883987 447.876007,192.632278 445.975922,193.241531 
	C438.234802,195.723679 431.005951,195.927078 423.698273,191.031723 
	C412.393005,183.458405 402.010437,175.264694 394.328949,163.697968 
	C392.328094,160.685043 387.354034,158.711685 383.448853,158.071884 
	C371.230255,156.070114 361.583405,163.598206 351.188843,168.126572 
	C348.535858,169.282364 347.809387,176.491699 349.415009,181.039062 
	C349.524292,181.348526 349.765381,181.609268 349.895416,181.913910 
	C355.730896,195.585754 350.712799,196.860779 338.985443,196.716431 
	C334.734192,196.664093 332.114197,197.273621 329.808044,201.253281 
	C332.772522,203.877991 335.948761,206.477249 338.876495,209.331436 
	C343.467407,213.807053 342.681702,217.661041 336.749725,220.383194 
	C329.708069,223.614563 322.505371,226.528091 315.631226,230.080200 
	C310.702240,232.627167 310.971802,235.543365 315.853088,238.103622 
	C316.882355,238.643478 317.911041,239.210739 318.996613,239.612228 
	C323.004272,241.094467 322.745331,243.621078 320.217560,246.035110 
	C316.011444,250.051926 313.999054,254.545486 316.130402,260.495514 
	C314.113159,261.116577 312.393707,261.645935 310.295776,262.313538 
z"/>
<path fill="#FEEA00" opacity="1.000000" stroke="none" 
	d="
M295.531616,404.302002 
	C313.804321,410.195648 327.978546,420.994843 339.029022,436.972443 
	C354.561859,421.837708 369.741547,407.047119 385.115204,392.067566 
	C358.569977,360.229279 324.785675,342.710876 282.823975,337.889801 
	C287.966919,324.520233 292.839294,311.720825 297.890869,298.992554 
	C298.266754,298.045380 299.843079,297.301331 301.004425,296.979919 
	C320.063171,291.705292 339.049042,286.105896 358.287354,281.583832 
	C363.243378,280.418884 369.029114,282.577850 374.400269,283.422668 
	C392.298553,286.237885 400.192444,299.753113 404.485260,314.773590 
	C406.613556,322.220367 403.669495,331.201172 402.628510,339.438416 
	C401.984161,344.537109 400.839874,349.606323 399.502625,354.576447 
	C397.027893,363.774231 397.750854,373.053528 398.366058,382.337250 
	C398.459351,383.744781 399.113647,385.269623 399.928925,386.449707 
	C405.120605,393.964600 407.953094,402.337463 409.902191,411.197693 
	C410.804077,415.297455 409.312866,416.642029 405.833740,417.286926 
	C403.530670,417.713806 401.248352,418.252716 397.588989,419.033173 
	C400.656464,421.544983 402.813538,422.838165 404.347137,424.657074 
	C408.701965,429.822205 413.174225,434.957703 416.868744,440.585144 
	C419.238678,444.195007 419.917419,448.522064 417.336945,452.885681 
	C416.350525,454.553772 416.158813,457.111603 416.583160,459.049835 
	C416.877106,460.392426 418.912964,462.389435 420.052185,462.313751 
	C423.258972,462.100677 426.599518,461.353333 429.434784,459.920868 
	C430.127472,459.570923 429.263062,455.748199 428.800110,453.589569 
	C428.023560,449.968475 426.234070,446.406342 426.210999,442.810822 
	C426.134491,430.879211 425.647980,419.233246 418.711273,408.758881 
	C417.868164,407.485779 418.989105,403.593475 420.413422,402.509094 
	C421.830139,401.430511 425.401306,401.522919 426.889496,402.630829 
	C428.621124,403.919983 429.605164,406.773438 430.067719,409.115112 
	C432.807648,422.986176 435.423248,436.884735 437.837250,450.816223 
	C439.474274,460.263855 440.489716,469.820496 442.181244,479.257019 
	C444.665588,493.116486 450.901031,504.673767 464.909515,509.688568 
	C474.556000,513.141785 484.595062,515.585266 494.577911,517.983582 
	C502.021057,519.771790 505.177155,522.848511 504.131958,528.764954 
	C504.102997,528.928894 504.130402,529.123718 504.050568,529.254883 
	C500.288666,535.436096 496.598694,541.664490 492.655609,547.728271 
	C492.100861,548.581360 490.278107,549.044739 489.085846,548.972229 
	C484.300171,548.681030 484.089661,551.143250 484.746613,554.935608 
	C485.229126,557.720886 485.607544,560.965149 484.614960,563.435364 
	C483.706329,565.696777 481.111725,567.527649 478.883331,568.963562 
	C473.180176,572.638367 466.923370,575.532471 461.538849,579.600281 
	C456.551025,583.368408 456.729065,586.324585 460.511871,591.286987 
	C463.158966,594.759644 461.716919,598.057678 456.804810,599.765259 
	C447.108429,603.135925 445.011475,606.141052 448.008667,616.208679 
	C450.163208,623.445984 454.086029,630.149658 457.126190,637.132202 
	C461.222015,646.539429 465.932190,655.758911 469.064270,665.482361 
	C471.924927,674.363220 470.413208,683.670227 467.281372,692.441895 
	C466.759186,693.904480 464.369049,695.682739 462.858490,695.667664 
	C409.889740,695.139465 358.035522,688.296997 308.510406,668.214783 
	C303.144226,666.038696 300.067902,663.173584 298.642426,657.285156 
	C295.564850,644.572388 291.580109,632.079163 287.824738,619.002502 
	C326.089172,613.570374 357.780548,597.000000 383.087708,567.823547 
	C368.165009,551.709900 353.373566,535.737915 338.050049,519.191467 
	C322.263306,540.099976 301.665283,551.974548 274.833984,553.627380 
	C266.928253,502.910126 264.970398,452.264221 271.129730,399.947052 
	C279.330200,401.386627 287.241119,402.775391 295.531616,404.302002 
z"/>
<path fill="#FEEA00" opacity="1.000000" stroke="none" 
	d="
M755.725342,355.274536 
	C745.502625,345.123932 734.644592,336.410431 722.287537,329.585632 
	C718.176208,327.314911 714.777771,326.624603 711.706116,330.987671 
	C710.967590,332.036682 709.794739,332.779846 708.385132,334.060120 
	C705.525391,323.814972 703.585388,313.685822 699.826050,304.284149 
	C696.013367,294.748932 698.144897,288.725037 705.392639,281.545288 
	C728.465881,258.688629 750.615112,234.898560 773.075989,211.425659 
	C774.319946,210.125610 775.152893,208.432281 776.182373,206.914276 
	C919.726135,353.410309 931.391785,599.715820 780.338745,761.143372 
	C779.398743,760.327698 778.374878,759.570007 777.504456,758.664856 
	C751.637207,731.764038 725.826172,704.808838 699.869568,677.994690 
	C697.169739,675.205566 696.629517,673.093262 698.296143,669.410400 
	C709.740601,644.120911 716.890259,617.507690 721.990967,590.297424 
	C722.107910,589.673706 722.297974,589.063721 722.499451,588.267334 
	C738.418823,588.267334 754.191589,588.267334 770.563110,588.267334 
	C770.563110,600.255066 770.563110,612.166992 770.563110,624.313965 
	C793.596436,624.313965 816.032898,624.313965 838.816711,624.313965 
	C838.952271,623.326050 839.189697,622.399292 839.191040,621.472229 
	C839.260132,571.805847 834.609070,522.696777 820.931213,474.770477 
	C808.212708,430.205841 788.858826,389.153900 755.725342,355.274536 
z"/>
<path fill="#FEEA00" opacity="1.000000" stroke="none" 
	d="
M168.550934,376.556580 
	C96.203697,443.019562 113.295250,559.609253 201.583298,603.849365 
	C217.803574,611.977112 234.907654,617.183960 252.979691,618.952209 
	C255.741150,619.222412 257.006378,620.097351 257.729492,622.797485 
	C261.599457,637.247375 265.741608,651.624878 269.531952,666.094910 
	C269.980530,667.807373 269.515350,670.562622 268.360901,671.773682 
	C241.459656,699.993591 214.405380,728.067688 187.369049,756.158813 
	C187.049393,756.490906 186.594498,756.692871 186.216125,756.946594 
	C42.896267,603.141541 48.432777,358.093658 189.560318,211.629837 
	C198.432617,220.871078 207.293991,230.107559 216.162689,239.336990 
	C232.209671,256.036621 248.257339,272.735596 264.316254,289.423767 
	C265.926880,291.097504 267.213867,292.332184 266.114746,295.316956 
	C261.294556,308.406555 256.862183,321.641571 252.470001,334.883850 
	C251.660782,337.323608 250.917633,338.673279 247.969345,339.099030 
	C217.828018,343.451477 191.373108,355.778442 168.550934,376.556580 
z"/>
<path fill="#E52B2F" opacity="1.000000" stroke="none" 
	d="
M661.674438,413.711853 
	C676.882080,386.056549 695.375305,361.417175 718.325562,340.042633 
	C735.864502,350.017395 749.772888,363.536774 761.979614,378.894043 
	C786.331970,409.531799 801.354187,444.701630 811.544434,482.146790 
	C822.897766,523.865662 827.424744,566.486389 828.084412,609.599915 
	C828.101807,610.733582 827.915955,611.870300 827.801880,613.292725 
	C812.538025,613.292725 797.452759,613.292725 781.665405,613.292725 
	C781.665405,601.200439 781.665405,589.310547 781.665405,577.281250 
	C742.210876,577.281250 703.457886,577.281250 664.230835,577.281250 
	C664.230835,589.614014 664.230835,601.712341 664.230835,614.199951 
	C647.388977,614.199951 631.019531,614.199951 613.956177,614.199951 
	C614.445251,543.595337 627.979797,476.472443 661.674438,413.711853 
M692.731567,517.840088 
	C714.693420,517.840088 736.655334,517.840088 759.154968,517.840088 
	C755.026794,487.202087 741.707764,461.526855 723.036865,437.764191 
	C701.755981,460.632538 692.854614,488.196136 686.863953,517.593140 
	C688.869751,517.693359 690.335083,517.766602 692.731567,517.840088 
z"/>
<path fill="#FEEA00" opacity="1.000000" stroke="none" 
	d="
M611.676819,677.763123 
	C604.961731,679.236145 598.652771,680.607971 593.233032,681.786377 
	C596.247620,673.328064 599.702454,664.791382 602.304749,656.002319 
	C604.826355,647.485291 602.599243,639.403381 596.011658,633.626953 
	C586.156433,624.985168 575.727295,616.974731 565.284058,609.035339 
	C558.737183,604.058167 558.421387,603.052185 564.302795,596.869263 
	C567.068237,593.961975 567.737183,590.564331 565.260681,587.385803 
	C563.043091,584.539673 560.141235,582.227295 557.545593,579.675049 
	C551.743286,573.969727 545.681030,568.496765 540.265930,562.444824 
	C537.939514,559.844849 536.418152,556.188538 535.478271,552.753052 
	C533.440430,545.304321 529.068115,540.179138 522.192322,536.895020 
	C514.367859,533.157837 508.157013,527.956421 506.531525,518.796875 
	C505.389618,512.362366 506.862427,508.460785 512.848816,505.683319 
	C517.739258,503.414337 523.098206,502.155029 528.188782,500.468231 
	C524.476135,494.220398 515.630493,493.315002 510.971039,498.830719 
	C509.382843,500.710785 507.469177,502.446594 505.396484,503.764160 
	C496.094635,509.676971 489.441437,507.666809 484.943512,497.595856 
	C480.786621,488.288544 478.830658,478.413239 480.370209,468.376526 
	C481.082214,463.734772 483.667053,459.120026 486.331757,455.110413 
	C489.064270,450.998810 492.779266,447.486389 496.338074,443.990479 
	C501.500610,438.919098 507.858307,436.853363 515.066467,437.601746 
	C522.995178,438.424927 525.514648,440.940552 526.479492,449.876740 
	C528.471008,448.695068 530.174622,447.899475 531.606262,446.761597 
	C532.615845,445.959137 533.184021,444.626892 534.073486,443.643555 
	C538.620544,438.616852 541.288513,438.807556 546.764587,444.569611 
	C547.911316,438.332336 550.662292,433.289062 556.409485,430.123871 
	C559.078552,428.653900 560.320923,425.973419 558.236206,423.424316 
	C555.757935,420.393921 557.098816,418.060425 558.905334,415.876831 
	C562.179260,411.919464 563.543640,408.157471 560.566833,403.212372 
	C558.381958,399.582825 561.490295,397.477325 564.192749,395.655518 
	C568.321960,392.871796 573.666016,390.942322 576.328308,387.135406 
	C581.274536,380.062531 587.375793,379.778625 594.633789,380.828674 
	C596.090637,381.039429 598.245911,380.193298 599.242554,379.083282 
	C601.886841,376.138214 604.091248,372.795197 606.438843,369.587280 
	C610.639099,363.847717 614.816101,358.091125 619.539307,351.604950 
	C618.534729,349.947205 617.029114,347.462708 615.341187,344.677368 
	C615.911438,343.876282 616.650208,342.838379 617.781067,341.249725 
	C616.054382,339.844116 614.461914,338.252045 612.599854,337.093079 
	C608.659790,334.640900 604.433533,332.625519 600.623901,329.997406 
	C598.987610,328.868622 597.551819,326.817596 596.998047,324.903992 
	C596.227600,322.241455 596.857666,320.293091 600.724854,320.281616 
	C603.192444,320.274292 606.124023,318.785767 607.908081,317.014923 
	C608.725220,316.203796 607.897522,312.595856 606.711731,311.182861 
	C605.075562,309.233337 602.395203,308.160126 600.177795,306.721710 
	C600.201843,296.230896 595.312683,292.819122 585.399841,296.577484 
	C580.701172,298.358948 577.193848,301.069183 574.414917,305.897217 
	C571.984253,310.120422 566.787048,312.920258 562.407043,315.714050 
	C561.499146,316.293152 558.781433,314.126526 556.944763,313.138153 
	C553.477234,311.272217 550.043823,309.342957 546.039368,308.388641 
	C544.767212,305.570221 543.783325,302.568481 542.140564,299.985779 
	C540.552551,297.489349 538.285828,295.424622 536.089783,292.909729 
	C540.666321,285.136810 545.168579,277.181000 550.058838,269.471344 
	C550.932129,268.094513 553.549561,266.815735 555.129822,267.050751 
	C571.907837,269.545959 588.651855,272.281250 605.375305,275.126251 
	C610.367493,275.975555 609.975159,280.367462 609.890076,283.866913 
	C609.710693,291.248993 611.031189,292.958069 618.023682,292.955322 
	C619.845459,290.255463 621.266357,287.134460 623.571289,284.943451 
	C628.012146,280.722107 638.279236,282.148193 642.964539,287.042969 
	C647.230896,291.500061 652.044922,294.201660 658.726013,292.964630 
	C661.975891,292.362946 665.238037,293.616272 666.333862,297.715546 
	C671.742981,317.949493 677.297852,338.144867 682.595642,358.407623 
	C683.018005,360.023010 682.429565,362.477478 681.383606,363.819122 
	C639.639709,417.363525 617.665039,478.892700 607.895203,545.354370 
	C604.278809,569.955994 602.341919,594.675964 603.446472,619.567810 
	C603.526794,621.376648 603.770813,623.178284 603.964600,625.262085 
	C627.583557,625.262085 650.997314,625.262085 674.980713,625.262085 
	C674.980713,613.001221 674.980713,600.784851 674.980713,588.308777 
	C680.473755,588.308777 685.406555,588.308777 691.154236,588.308777 
	C688.795715,598.074158 686.965393,607.826660 684.042725,617.239990 
	C679.760986,631.030762 674.858276,644.638916 669.801880,658.168518 
	C668.992004,660.335632 666.269592,662.604492 663.978699,663.271240 
	C646.743896,668.287170 629.395691,672.913635 611.676819,677.763123 
z"/>
<path fill="#E52B2F" opacity="1.000000" stroke="none" 
	d="
M141.677612,521.303345 
	C116.649597,448.901794 158.474854,372.167328 234.089401,353.217499 
	C283.908875,340.732178 328.395813,352.288452 366.190857,387.682129 
	C367.160339,388.590027 368.048950,389.586395 368.945221,390.568909 
	C369.161072,390.805542 369.256622,391.151947 368.788788,390.234375 
	C359.176208,400.448730 349.857147,410.351166 340.412964,420.386566 
	C337.122406,417.280334 334.321320,414.452972 331.331726,411.841400 
	C284.012299,370.504761 207.462326,389.348145 185.811295,447.641113 
	C167.220352,497.695129 199.494171,553.299805 252.934357,562.947327 
	C284.764862,568.693604 312.614594,560.474731 336.162537,538.133667 
	C336.645386,537.675537 337.113342,537.199524 337.621002,536.770630 
	C337.869690,536.560547 338.193634,536.439453 338.730469,536.140503 
	C348.398193,546.580383 358.108490,557.066345 368.054840,567.807129 
	C358.343781,577.961121 347.417236,585.989319 335.339050,592.499573 
	C268.146667,628.716736 183.268005,603.421753 148.437973,536.736694 
	C145.904099,531.885376 144.012238,526.698730 141.677612,521.303345 
z"/>
<path fill="#FDE901" opacity="1.000000" stroke="none" 
	d="
M200.218307,442.301880 
	C209.168793,426.196045 221.793640,414.731689 239.125275,407.109924 
	C234.766174,454.700745 236.335922,501.309204 242.998428,547.839844 
	C209.339371,539.412781 175.034088,491.847382 200.218307,442.301880 
z"/>
<path fill="#063154" opacity="1.000000" stroke="none" 
	d="
M692.265991,517.839966 
	C690.335083,517.766602 688.869751,517.693359 686.863953,517.593140 
	C692.854614,488.196136 701.755981,460.632538 723.036865,437.764191 
	C741.707764,461.526855 755.026794,487.202087 759.154968,517.840088 
	C736.655334,517.840088 714.693420,517.840088 692.265991,517.839966 
M739.671448,486.905243 
	C734.307007,476.444611 728.942627,465.984009 723.081848,454.555542 
	C711.615906,471.212555 705.174988,488.268707 700.604858,506.471130 
	C716.010132,506.471130 730.839355,506.471130 746.381958,506.471130 
	C744.116882,499.839020 742.031250,493.732330 739.671448,486.905243 
z"/>
<path fill="#FBE801" opacity="1.000000" stroke="none" 
	d="
M739.808594,487.265442 
	C742.031250,493.732330 744.116882,499.839020 746.381958,506.471130 
	C730.839355,506.471130 716.010132,506.471130 700.604858,506.471130 
	C705.174988,488.268707 711.615906,471.212555 723.081848,454.555542 
	C728.942627,465.984009 734.307007,476.444611 739.808594,487.265442 
z"/>
</svg>